<?xml version="1.0" encoding="UTF-8" standalone="no"?> <svg width="24" height="24" viewBox="0 0 24 24" fill="none" xmlns="http://www.w3.org/2000/svg">
<path d="M11.1111 23.0002C10.9707 23.0002 10.832 22.9706 10.7038 22.9134C10.5757 22.8562 10.461 22.7727 10.3673 22.6683C10.2735 22.5639 10.2028 22.4409 10.1597 22.3074C10.1166 22.1738 10.102 22.0327 10.1171 21.8932L10.8851 14.8002H5.00006C4.81895 14.8002 4.64124 14.7509 4.48591 14.6578C4.33059 14.5646 4.20348 14.431 4.11816 14.2713C4.03284 14.1115 3.9925 13.9316 4.00147 13.7507C4.01044 13.5698 4.06836 13.3947 4.16906 13.2442L12.0571 1.44419C12.1815 1.25853 12.3646 1.11991 12.577 1.05046C12.7895 0.98102 13.0191 0.984757 13.2292 1.06108C13.4393 1.1374 13.6177 1.2819 13.7361 1.47152C13.8544 1.66114 13.9058 1.88494 13.8821 2.10719L13.1141 9.20019H19.0001C19.1812 9.20022 19.3589 9.24945 19.5142 9.3426C19.6695 9.43575 19.7966 9.56934 19.882 9.7291C19.9673 9.88886 20.0076 10.0688 19.9987 10.2497C19.9897 10.4306 19.9318 10.6057 19.8311 10.7562L11.9421 22.5562C11.8507 22.6928 11.7271 22.8048 11.5821 22.8822C11.4372 22.9596 11.2754 23.0002 11.1111 23.0002" fill="black"/>
</svg>
